<?xml version="1.0" encoding="UTF-8" standalone="no"?>
<svg
   xmlns:dc="http://purl.org/dc/elements/1.1/"
   xmlns:cc="http://creativecommons.org/ns#"
   xmlns:rdf="http://www.w3.org/1999/02/22-rdf-syntax-ns#"
   xmlns:svg="http://www.w3.org/2000/svg"
   xmlns="http://www.w3.org/2000/svg"
   xmlns:sodipodi="http://sodipodi.sourceforge.net/DTD/sodipodi-0.dtd"
   xmlns:inkscape="http://www.inkscape.org/namespaces/inkscape"
   width="28in"
   height="28in"
   viewBox="0 0 275.2512 275.2512"
   preserveAspectRatio="xMinYMin meet"
   version="1.1"
   id="svg6"
   sodipodi:docname="bootstrap-4.svg"
   inkscape:version="0.92.2 5c3e80d, 2017-08-06">
  <metadata
     id="metadata12">
    <rdf:RDF>
      <cc:Work
         rdf:about="">
        <dc:format>image/svg+xml</dc:format>
        <dc:type
           rdf:resource="http://purl.org/dc/dcmitype/StillImage" />
        <dc:title></dc:title>
      </cc:Work>
    </rdf:RDF>
  </metadata>
  <defs
     id="defs10" />
  <sodipodi:namedview
     pagecolor="#ffffff"
     bordercolor="#666666"
     borderopacity="1"
     objecttolerance="10"
     gridtolerance="10"
     guidetolerance="10"
     inkscape:pageopacity="0"
     inkscape:pageshadow="2"
     inkscape:window-width="2069"
     inkscape:window-height="1320"
     id="namedview8"
     showgrid="false"
     scale-x="0.1024"
     units="in"
     width="260in"
     inkscape:pagecheckerboard="true"
     inkscape:zoom="0.0944"
     inkscape:cx="1271.1864"
     inkscape:cy="1250"
     inkscape:window-x="0"
     inkscape:window-y="35"
     inkscape:window-maximized="0"
     inkscape:current-layer="svg6" />
  <g
     inkscape:groupmode="layer"
     id="layer2"
     inkscape:label="background"
     style="display:inline" />
  <g
     inkscape:groupmode="layer"
     id="layer3"
     inkscape:label="logo"
     style="display:inline" />
  <path
     d="m 0.94762755,236.64164 c 0,19.00454 15.78096945,34.40769 35.24689945,34.40769 H 239.0556 c 19.46914,0 35.24797,-15.40523 35.24797,-34.40769 V 38.610603 c 0,-19.005585 -15.78097,-34.4087289 -35.2469,-34.4087289 H 36.195597 c -19.46914,0 -35.24796945,15.4052289 -35.24796945,34.4076869 V 236.6406 Z"
     id="path2-7"
     inkscape:connector-curvature="0"
     style="opacity:1;fill:#ffffff;fill-opacity:1;stroke-width:1.05500817" />
  <g
     id="g4608"
     transform="translate(246.10018,8.6935885)">
    <path
       style="fill:#563d7c"
       inkscape:connector-curvature="0"
       id="path2"
       d="m -236.47458,223.92301 c 0,18.232 14.779,33.009 33.009,33.009 h 189.981 c 18.233,0 33.01,-14.779 33.01,-33.009 V 33.942013 c 0,-18.233 -14.779,-33.01 -33.009,-33.01 h -189.981 c -18.233,0 -33.01,14.779 -33.01,33.009 V 223.92201 Z" />
    <path
       style="fill:#ffffff"
       inkscape:connector-curvature="0"
       id="path4"
       d="M -130.31658,114.17001 V 77.917013 h 31.911 c 3.04,0 5.97,0.253 8.792,0.76 2.822,0.506 5.319,1.41 7.49,2.713 2.17,1.303 3.907,3.112 5.21,5.427 1.302,2.316 1.954,5.283002 1.954,8.900002 0,6.512995 -1.954,11.216995 -5.862,14.110995 -3.907,2.895 -8.9,4.342 -14.979,4.342 z m -34.083,-62.737997 V 206.43201 h 75.112 c 6.947,0 13.713,-0.868 20.298,-2.605 6.585,-1.737 12.446,-4.414 17.584,-8.032 5.137,-3.618 9.226,-8.286 12.265,-14.002 3.04,-5.717 4.559,-12.483 4.559,-20.298 0,-9.697 -2.352,-17.982 -7.055,-24.856 -4.704,-6.875 -11.832,-11.687 -21.384,-14.437 6.947,-3.328 12.194,-7.598 15.74,-12.808 3.545,-5.21 5.318,-11.721995 5.318,-19.537997 0,-7.236 -1.194,-13.314 -3.582,-18.235 -2.388,-4.92 -5.753,-8.864 -10.095,-11.831 -4.341,-2.967 -9.551,-5.102 -15.63,-6.404 -6.078,-1.303 -12.808,-1.954 -20.189,-1.954 z m 34.083,128.514997 v -42.549 h 37.121 c 7.381,0 13.315,1.7 17.802,5.102 4.486,3.401 6.73,9.081 6.73,17.041 0,4.053 -0.688,7.381 -2.063,9.986 -1.375,2.605 -3.22,4.668 -5.536,6.187 -2.315,1.52 -4.993,2.605 -8.032,3.257 -3.04,0.65 -6.223,0.976 -9.552,0.976 z" />
  </g>
</svg>
